Cover :: 
http://i.minus.com/ibi2WszLzpcegy.png

Screen :: 
http://i.minus.com/ibfvRu2RNeJ2zu.png
 
http://i.minus.com/iSRgG68RdjpsF.png
 
http://i.minus.com/iSYwvLcTrdm8m.png
 
http://i.minus.com/ib0niXYZAyusx1.png
 
http://i.minus.com/ibjj6KBVOuEsA1.png


General ::
Format                           : AVI
Format/Info                      : Audio Video Interleave
File size                        : 117 MiB
Duration                         : 4mn 50s
Overall bit rate                 : 3 386 Kbps


Video Info ::
ID                               : 0
Format                           : AVC
Format/Info                      : Advanced Video Codec
Format profile                   : High@L5.1
Format settings, CABAC           : Yes
Format settings, ReFrames        : 2 frames
Codec ID                         : H264
Duration                         : 10s 0ms
Bit rate                         : 3 056 Kbps
Width                            : 1 280 pixels
Height                           : 544 pixels
Display aspect ratio             : 2.35:1
Frame rate                       : 30.000 fps
Color space                      : YUV
Chroma subsampling               : 4:2:0
Bit depth                        : 8 bits
Scan type                        : Progressive
Bits/(Pixel*Frame)               : 0.146
Stream size                      : 106 MiB (90%)


Audio Info ::
ID                               : 1
Format                           : MPEG Audio
Format version                   : Version 1
Format profile                   : Layer 3
Codec ID                         : 55
Codec ID/Hint                    : MP3
Duration                         : 4mn 50s
Bit rate mode                    : Constant
Bit rate                         : 320 Kbps
Channel(s)                       : 2 channels
Sampling rate                    : 48.0 KHz
Compression mode                 : Lossy
Stream size                      : 11.1 MiB (9%)